<svg width="171" height="50" viewBox="0 0 171 50" fill="none" xmlns="http://www.w3.org/2000/svg">
<g clip-path="url(#clip0_86_961)">
<path d="M66.7929 43.1114C66.5162 42.9953 66.1592 42.8793 65.7129 42.7543C65.3648 42.6562 65.0881 42.5669 64.8828 42.4866C64.6864 42.4062 64.5168 42.2991 64.3829 42.1742C64.2491 42.0403 64.1866 41.8796 64.1866 41.6743C64.1866 41.4155 64.2937 41.2102 64.5168 41.0585C64.731 40.8978 65.0256 40.8175 65.3916 40.8175C65.7932 40.8175 66.1056 40.9156 66.3466 41.112C66.5787 41.3084 66.7126 41.5672 66.7304 41.8885H67.7569C67.7301 41.2905 67.498 40.8175 67.0785 40.4694C66.659 40.1213 66.1056 39.9517 65.4273 39.9517C64.981 39.9517 64.5882 40.032 64.2491 40.1837C63.9099 40.3355 63.6421 40.5497 63.4457 40.8085C63.2494 41.0674 63.169 41.3619 63.169 41.6743C63.169 42.076 63.2762 42.3884 63.4814 42.6383C63.6867 42.8793 63.9367 43.0667 64.2223 43.1917C64.5079 43.3167 64.8828 43.4416 65.338 43.5577C65.8378 43.6826 66.2127 43.8165 66.4537 43.9415C66.6947 44.0754 66.8107 44.2717 66.8107 44.5484C66.8107 44.8251 66.6947 45.0304 66.4716 45.2C66.2484 45.3696 65.936 45.4588 65.5522 45.4588C65.1327 45.4588 64.7935 45.3607 64.5347 45.1643C64.2758 44.9679 64.133 44.718 64.0973 44.4056H63.0352C63.0619 44.7805 63.178 45.1107 63.3922 45.4053C63.6064 45.6909 63.9099 45.923 64.2848 46.0836C64.6596 46.2443 65.0881 46.3246 65.5611 46.3246C66.0074 46.3246 66.4002 46.2443 66.7393 46.0926C67.0785 45.9408 67.3463 45.7266 67.5337 45.4588C67.7212 45.1911 67.8194 44.8876 67.8194 44.5484C67.8194 44.1735 67.7122 43.8701 67.5069 43.638C67.3106 43.4059 67.0696 43.2274 66.7929 43.1114V43.1114Z" fill="#1D1D1B"/>
<path d="M75.4161 37.6572C75.2197 37.6572 75.059 37.7286 74.9162 37.8625C74.7823 37.9964 74.7109 38.166 74.7109 38.3624C74.7109 38.5587 74.7823 38.7194 74.9162 38.8533C75.0501 38.9872 75.2197 39.0586 75.4161 39.0586C75.6124 39.0586 75.7642 38.9872 75.8981 38.8533C76.0319 38.7194 76.0944 38.5498 76.0944 38.3624C76.0944 38.1749 76.0319 38.0053 75.8981 37.8625C75.7642 37.7286 75.6035 37.6572 75.4161 37.6572Z" fill="#1D1D1B"/>
<path d="M75.9142 40.0493H74.8877V46.217H75.9142V40.0493Z" fill="#1D1D1B"/>
<path d="M86.2956 39.9424C85.8761 39.9424 85.4923 40.0316 85.1442 40.2012C84.796 40.3708 84.5194 40.6207 84.3141 40.9331V40.0584H83.2876V46.2261H84.3141V42.8165C84.3141 42.1738 84.4747 41.6829 84.7961 41.3437C85.1174 41.0045 85.5458 40.835 86.0814 40.835C86.6169 40.835 87.0364 40.9956 87.3399 41.3259C87.6434 41.6561 87.804 42.1203 87.804 42.7361V46.2261H88.8216V42.5933C88.8216 41.7365 88.5895 41.0849 88.1254 40.6297C87.6612 40.1745 87.0543 39.9513 86.3045 39.9513L86.2956 39.9424Z" fill="#1D1D1B"/>
<path d="M98.7476 40.8175C99.1939 40.8175 99.5777 40.9246 99.8812 41.1477C100.185 41.3619 100.39 41.6654 100.497 42.0403H101.604C101.443 41.3887 101.122 40.8799 100.631 40.5051C100.14 40.1391 99.5152 39.9517 98.7565 39.9517C98.1674 39.9517 97.6497 40.0855 97.1945 40.3444C96.7393 40.6032 96.3823 40.9781 96.1323 41.4512C95.8735 41.9242 95.7485 42.4866 95.7485 43.1203C95.7485 43.754 95.8735 44.3253 96.1323 44.8073C96.3912 45.2893 96.7393 45.6552 97.1945 45.923C97.6497 46.1818 98.1674 46.3157 98.7565 46.3157C99.4973 46.3157 100.122 46.1283 100.613 45.7445C101.104 45.3696 101.434 44.8608 101.604 44.2271H100.497C100.381 44.6198 100.176 44.9144 99.8812 45.1286C99.5777 45.3428 99.2028 45.441 98.7565 45.441C98.1674 45.441 97.6944 45.2357 97.3373 44.834C96.9803 44.4324 96.7929 43.8522 96.7929 43.1114C96.7929 42.3705 96.9714 41.8082 97.3373 41.4066C97.7033 41.0049 98.1674 40.7996 98.7565 40.7996L98.7476 40.8175Z" fill="#1D1D1B"/>
<path d="M112.805 40.3355C112.359 40.0766 111.832 39.9517 111.252 39.9517C110.672 39.9517 110.119 40.0766 109.655 40.3355C109.19 40.5943 108.833 40.9603 108.584 41.4423C108.325 41.9243 108.2 42.4776 108.2 43.1203C108.2 43.763 108.334 44.3164 108.592 44.8073C108.851 45.2982 109.217 45.6641 109.681 45.923C110.146 46.1818 110.663 46.3157 111.252 46.3157C111.984 46.3157 112.6 46.1283 113.1 45.7623C113.6 45.3874 113.93 44.9055 114.091 44.3164H112.984C112.868 44.6645 112.654 44.9412 112.359 45.1464C112.065 45.3517 111.69 45.4588 111.252 45.4588C110.708 45.4588 110.253 45.2893 109.869 44.9501C109.494 44.6109 109.28 44.1378 109.244 43.522H114.171C114.198 43.3077 114.207 43.1024 114.207 42.9061C114.207 42.3438 114.082 41.835 113.841 41.3887C113.6 40.9424 113.252 40.5943 112.796 40.3355H112.805ZM109.262 42.6919C109.315 42.1028 109.521 41.6476 109.887 41.3173C110.253 40.987 110.69 40.8175 111.208 40.8175C111.565 40.8175 111.895 40.8889 112.19 41.0406C112.484 41.1834 112.716 41.3976 112.895 41.6833C113.064 41.96 113.153 42.2991 113.153 42.6919H109.262V42.6919Z" fill="#1D1D1B"/>
<path d="M132.889 43.718C133.362 43.2717 133.781 42.754 134.156 42.1649C134.531 41.5758 134.71 40.9688 134.71 40.344C134.71 39.5943 134.486 39.0052 134.031 38.5767C133.576 38.1483 132.96 37.9341 132.192 37.9341C131.425 37.9341 130.818 38.1662 130.336 38.6214C129.854 39.0766 129.604 39.7282 129.568 40.5672H130.559C130.577 40.0316 130.738 39.6121 131.014 39.2908C131.3 38.9695 131.693 38.8088 132.201 38.8088C132.71 38.8088 133.112 38.9516 133.344 39.2283C133.585 39.505 133.701 39.8977 133.701 40.3797C133.701 40.8974 133.513 41.424 133.147 41.9596C132.773 42.4951 132.317 43.0128 131.782 43.5037C131.246 43.9947 130.497 44.6284 129.542 45.3871V46.119H134.959V45.2621H131.086C131.818 44.673 132.425 44.1464 132.898 43.7001L132.889 43.718Z" fill="#1D1D1B"/>
<path d="M144.6 37.9604C143.546 37.9604 142.814 38.3264 142.395 39.0494C141.975 39.7724 141.761 40.781 141.761 42.0752C141.761 43.3694 141.975 44.4138 142.395 45.1367C142.814 45.8687 143.546 46.2257 144.6 46.2257C145.653 46.2257 146.376 45.8597 146.795 45.1367C147.215 44.4138 147.429 43.3873 147.429 42.0752C147.429 40.7631 147.215 39.7813 146.795 39.0494C146.376 38.3264 145.644 37.9604 144.6 37.9604ZM146.287 43.7711C146.197 44.2263 146.028 44.6012 145.76 44.8779C145.492 45.1546 145.108 45.2974 144.609 45.2974C144.109 45.2974 143.707 45.1546 143.439 44.8779C143.171 44.6012 142.993 44.2352 142.913 43.7711C142.832 43.307 142.788 42.7446 142.788 42.0752C142.788 41.4058 142.832 40.8702 142.913 40.415C143.002 39.9598 143.171 39.5939 143.439 39.3172C143.707 39.0405 144.091 38.8977 144.609 38.8977C145.126 38.8977 145.492 39.0405 145.76 39.3172C146.028 39.5939 146.206 39.9598 146.287 40.415C146.376 40.8702 146.42 41.4236 146.42 42.0752C146.42 42.7268 146.376 43.3159 146.287 43.7711Z" fill="#1D1D1B"/>
<path d="M157.299 37.9604C156.246 37.9604 155.514 38.3264 155.095 39.0494C154.675 39.7724 154.461 40.781 154.461 42.0752C154.461 43.3694 154.675 44.4138 155.095 45.1367C155.514 45.8687 156.246 46.2257 157.299 46.2257C158.353 46.2257 159.076 45.8597 159.495 45.1367C159.915 44.4138 160.129 43.3873 160.129 42.0752C160.129 40.7631 159.915 39.7813 159.495 39.0494C159.076 38.3264 158.344 37.9604 157.299 37.9604ZM158.986 43.7711C158.897 44.2263 158.727 44.6012 158.46 44.8779C158.192 45.1546 157.808 45.2974 157.308 45.2974C156.808 45.2974 156.407 45.1546 156.139 44.8779C155.871 44.6012 155.693 44.2352 155.612 43.7711C155.532 43.307 155.487 42.7446 155.487 42.0752C155.487 41.4058 155.532 40.8702 155.612 40.415C155.702 39.9598 155.871 39.5939 156.139 39.3172C156.407 39.0405 156.791 38.8977 157.308 38.8977C157.826 38.8977 158.192 39.0405 158.46 39.3172C158.727 39.5939 158.906 39.9598 158.986 40.415C159.076 40.8702 159.12 41.4236 159.12 42.0752C159.12 42.7268 159.076 43.3159 158.986 43.7711Z" fill="#1D1D1B"/>
<path d="M166.885 39.0137H167.965V46.2257H169V38.0854H166.885V39.0137Z" fill="#1D1D1B"/>
<path d="M152.933 27.7414V22.9751H148.685V31.6777H170.829V27.7414H152.933Z" fill="#1D1D1B"/>
<path d="M155.066 20.9754C158.698 20.9754 161.706 18.2084 162.099 14.6827H166.607V25.7596H170.65V5.5249H166.607V11.1213H161.929C161.171 8.02411 158.377 5.71234 155.057 5.71234H153.057C149.157 5.71234 145.97 8.89883 145.97 12.7994V13.8972C145.97 17.7978 149.157 20.9843 153.057 20.9843H155.057L155.066 20.9754ZM149.996 13.6206V13.0672C149.996 11.1035 151.602 9.49686 153.566 9.49686H154.575C156.538 9.49686 158.145 11.1035 158.145 13.0672V13.6206C158.145 15.5842 156.538 17.1908 154.575 17.1908H153.566C151.602 17.1908 149.996 15.5842 149.996 13.6206V13.6206Z" fill="#1D1D1B"/>
<path d="M83.4554 5.5249H79.2246V30.5884H83.4554V5.5249Z" fill="#1D1D1B"/>
<path d="M68.3621 6.41748H67.7195C63.1316 6.41748 59.3828 9.97885 59.3828 14.5667V19.9757C59.3828 24.5635 63.1316 28.1249 67.7195 28.1249H68.3621C72.9499 28.1249 76.6988 24.5635 76.6988 19.9757V14.5667C76.6988 9.97885 72.9499 6.41748 68.3621 6.41748V6.41748ZM72.7714 19.699C72.7714 22.3053 70.6382 24.6171 68.0408 24.6171C65.4434 24.6171 63.3101 22.2964 63.3101 19.699V14.8434C63.3101 12.2371 65.4434 9.9253 68.0408 9.9253C70.6382 9.9253 72.7714 12.246 72.7714 14.8434V19.699Z" fill="#1D1D1B"/>
<path d="M141.393 5.5249H137.162V30.5884H141.393V5.5249Z" fill="#1D1D1B"/>
<path d="M126.291 6.41748H125.648C121.06 6.41748 117.312 9.97885 117.312 14.5667V19.9757C117.312 24.5635 121.06 28.1249 125.648 28.1249H126.291C130.879 28.1249 134.627 24.5635 134.627 19.9757V14.5667C134.627 9.97885 130.879 6.41748 126.291 6.41748V6.41748ZM130.7 19.699C130.7 22.3053 128.567 24.6171 125.97 24.6171C123.372 24.6171 121.239 22.2964 121.239 19.699V14.8434C121.239 12.2371 123.372 9.9253 125.97 9.9253C128.567 9.9253 130.7 12.246 130.7 14.8434V19.699Z" fill="#1D1D1B"/>
<path d="M111.295 6.00684H107.207V26.8306H98.6923V23.7512C101.736 23.5013 104.164 20.6183 104.164 17.521C104.164 14.4238 101.513 11.273 98.2728 11.273H94.9792C91.7392 11.273 89.0882 14.281 89.0882 17.521C89.0882 20.7611 91.5964 23.5995 94.7204 23.7601V26.8306H87.9814V30.2759H111.287V18.6189H114.33V14.6291H111.287V6.00684H111.295ZM95.8807 20.5736C94.408 20.5736 93.1941 19.0027 93.1941 17.53C93.1941 16.0572 94.3991 14.4863 95.8807 14.4863H97.3803C98.853 14.4863 100.067 16.0572 100.067 17.53C100.067 19.0027 98.8619 20.5736 97.3803 20.5736H95.8807Z" fill="#1D1D1B"/>
<path d="M105.225 6.6052H99.1287V4.00781H94.8979V6.6052H88.748V9.87203H105.225V6.6052Z" fill="#1D1D1B"/>
<path d="M45.8859 22.8316C48.0728 20.1538 49.2867 16.6549 48.9832 12.8615C48.4476 6.02439 42.878 0.508276 36.023 0.0352115C32.4081 -0.214709 29.0609 0.909934 26.4457 2.945C25.9548 3.32881 25.3746 3.59658 24.7498 3.63229C24.1964 3.65906 23.518 3.56088 22.8129 3.13244C20.1352 0.954563 16.6452 -0.259338 12.8607 0.0441373C6.02358 0.588608 0.516394 6.15827 0.0344034 12.9954C-0.224443 16.7264 0.980532 20.1628 3.12271 22.8137C3.30123 23.0369 3.44404 23.2778 3.53329 23.5545C3.67611 24.0008 3.79214 24.697 3.56007 25.4825C3.44404 25.8842 3.22089 26.2501 2.96205 26.5804C0.9002 29.2135 -0.233369 32.5963 0.0344034 36.247C0.543171 43.1108 6.12176 48.6627 12.9857 49.1447C16.8237 49.4124 20.3583 48.136 23.0271 45.8689C23.0271 45.8689 24.7498 44.9317 26.3386 46.1545C28.8735 48.1628 32.1135 49.3142 35.6303 49.1714C42.6995 48.8769 48.528 43.1912 49.001 36.1309C49.242 32.5249 48.1085 29.1867 46.0734 26.5804C45.2433 25.5182 45.154 24.0187 45.8592 22.8762C45.8681 22.8583 45.877 22.8494 45.8859 22.8316V22.8316Z" fill="white"/>
<path d="M24.6346 24.5981L14.6021 34.6218L25.8217 45.8414C25.9913 45.9307 26.1698 46.0289 26.3394 46.1627C28.8743 48.171 32.1144 49.3225 35.6311 49.1796C38.9426 49.0368 41.9773 47.7247 44.3159 45.6361L44.9942 44.9578L24.6346 24.5981Z" fill="#9B94F2"/>
<path d="M24.6331 24.5898L4.13064 4.0874C1.80102 6.41702 0.27472 9.54103 0.0337251 12.9953C-0.225121 16.7263 0.979854 20.1627 3.12203 22.8136C3.30055 23.0278 3.43443 23.2688 3.52369 23.5366L14.6095 34.6224L24.6331 24.5988V24.5898Z" fill="#FF987D"/>
<path d="M45.8592 22.8762C45.8592 22.8762 45.877 22.8494 45.886 22.8316C47.1088 21.332 48.0282 19.5737 48.5458 17.6546C48.5458 17.6546 48.5458 17.6546 48.5458 17.6457C48.9475 16.1373 49.1082 14.5306 48.9832 12.8704C48.4477 6.02439 42.878 0.508276 36.023 0.0352115C34.4075 -0.0808231 32.8544 0.088766 31.3906 0.481499C31.3906 0.481499 31.3906 0.481499 31.3816 0.481499C29.5697 0.972415 27.8917 1.82036 26.4546 2.945C25.9637 3.32881 25.3835 3.59658 24.7587 3.63229C24.2053 3.65906 23.527 3.56088 22.8219 3.13244C20.1352 0.954563 16.6452 -0.259338 12.8607 0.0441373C9.47787 0.31191 6.41634 1.82036 4.13135 4.09642L45.0113 44.9763C47.2873 42.6556 48.7779 39.5584 49.01 36.1309C49.251 32.5249 48.1174 29.1867 46.0823 26.5804C45.2522 25.5182 45.163 24.0187 45.8681 22.8762H45.8592Z" fill="#EB1669"/>
<path d="M3.52438 23.5361C3.52438 23.5361 3.52438 23.5451 3.52438 23.554C3.66719 24.0003 3.78322 24.6965 3.55115 25.4819C3.43512 25.8836 3.21198 26.2496 2.95313 26.5798C0.900209 29.2129 -0.233361 32.5958 0.0344115 36.2464C0.257555 39.2544 1.4536 42.0124 3.31016 44.1992L4.97035 45.8594C7.17501 47.7249 9.95091 48.9299 12.9857 49.1441C16.8237 49.4119 20.3583 48.1355 23.0271 45.8683C23.0271 45.8683 24.4017 45.1275 25.8209 45.8326L3.52438 23.5361Z" fill="#6CD685"/>
</g>
<defs>
<clipPath id="clip0_86_961">
<rect width="170.83" height="49.1898" fill="white"/>
</clipPath>
</defs>
</svg>
